<svg width="70" height="70" viewBox="0 0 70 70" fill="none" xmlns="http://www.w3.org/2000/svg">
<path d="M30 2.88675C33.094 1.10042 36.906 1.10042 40 2.88675L60.3109 14.6132C63.4049 16.3996 65.3109 19.7008 65.3109 23.2735V46.7265C65.3109 50.2992 63.4049 53.6004 60.3109 55.3868L40 67.1133C36.906 68.8996 33.094 68.8996 30 67.1133L9.68911 55.3868C6.5951 53.6004 4.68911 50.2992 4.68911 46.7265V23.2735C4.68911 19.7008 6.5951 16.3996 9.68911 14.6132L30 2.88675Z" fill="#FAD553"/>
<path d="M34.9999 25.1726C33.0562 25.1726 31.1561 25.749 29.54 26.8288C27.9239 27.9087 26.6643 29.4435 25.9204 31.2393C25.1766 33.035 24.982 35.011 25.3612 36.9174C25.7404 38.8237 26.6764 40.5748 28.0508 41.9492C29.4252 43.3236 31.1763 44.2596 33.0826 44.6388C34.989 45.018 36.9649 44.8234 38.7607 44.0796C40.5564 43.3357 42.0913 42.0761 43.1711 40.46C44.251 38.8439 44.8274 36.9438 44.8274 35.0001C44.8245 32.3946 43.7881 29.8966 41.9458 28.0542C40.1034 26.2118 37.6054 25.1755 34.9999 25.1726ZM34.9999 43.7351C33.2725 43.7351 31.584 43.2229 30.1478 42.2633C28.7116 41.3037 27.5921 39.9397 26.9311 38.3439C26.27 36.7481 26.097 34.9921 26.4338 33.298C26.7707 31.6038 27.6024 30.0476 28.8237 28.8261C30.045 27.6046 31.6011 26.7727 33.2952 26.4356C34.9893 26.0984 36.7454 26.2712 38.3413 26.9321C39.9372 27.5929 41.3013 28.7121 42.2611 30.1482C43.2209 31.5843 43.7334 33.2728 43.7336 35.0001C43.7311 37.3157 42.8101 39.5356 41.1727 41.173C39.5354 42.8103 37.3154 43.7313 34.9999 43.7339V43.7351Z" fill="#232323"/>
<path d="M49.1847 37.2828C49.8231 36.6428 50.5469 35.9175 50.5469 35C50.5469 34.0825 49.8231 33.3572 49.1847 32.7188C48.7553 32.2884 48.3116 31.8437 48.2094 31.4616C48.0994 31.0503 48.265 30.4241 48.425 29.8181C48.6625 28.9197 48.9078 27.9903 48.4656 27.2263C48.0166 26.4503 47.0806 26.1978 46.1753 25.9537C45.5775 25.7925 44.9591 25.6256 44.6675 25.3341C44.3759 25.0425 44.2094 24.4244 44.0481 23.8263C43.8041 22.92 43.5516 21.9853 42.7759 21.5363C42.0113 21.0941 41.0819 21.3394 40.1822 21.5766C39.5763 21.7366 38.9494 21.9016 38.5387 21.7922C38.1562 21.69 37.7119 21.2463 37.2816 20.8169C36.6428 20.1769 35.9175 19.4531 35 19.4531C34.0825 19.4531 33.3575 20.1769 32.7188 20.8153C32.2884 21.2447 31.8437 21.6884 31.4616 21.7906C31.0503 21.9 30.4237 21.735 29.8178 21.575C28.9187 21.3375 27.99 21.0919 27.2256 21.5344C26.4497 21.9834 26.1975 22.9194 25.9531 23.8247C25.7922 24.4225 25.6253 25.0412 25.3338 25.3325C25.0422 25.6237 24.4241 25.7906 23.8259 25.9519C22.9197 26.1959 21.9847 26.4484 21.5359 27.2244C21.0938 27.9884 21.3391 28.9178 21.5763 29.8162C21.7363 30.4222 21.9019 31.0487 21.7919 31.46C21.6875 31.8438 21.2447 32.2869 20.8156 32.7188C20.1769 33.3588 19.4531 34.0841 19.4531 35.0016C19.4531 35.9191 20.1769 36.6444 20.8156 37.2844C21.2447 37.7147 21.6884 38.1594 21.7906 38.5416C21.9006 38.9528 21.735 39.5791 21.575 40.1853C21.3378 41.0838 21.0922 42.0128 21.5347 42.7769C21.9834 43.5528 22.9194 43.8053 23.8247 44.0494C24.4225 44.2106 25.0409 44.3775 25.3322 44.6691C25.6234 44.9606 25.7906 45.5791 25.9519 46.1769C26.1959 47.0831 26.4484 48.0178 27.2244 48.4669C27.9884 48.9094 28.9181 48.6637 29.8166 48.4266C30.4222 48.2666 31.0481 48.1006 31.46 48.2109C31.8425 48.3131 32.2872 48.7569 32.7175 49.1863C33.3575 49.8247 34.0825 50.5484 34.9987 50.5484C35.915 50.5484 36.6416 49.8247 37.2816 49.1863C37.7119 48.7569 38.1566 48.3131 38.5387 48.2109C38.9497 48.1009 39.5769 48.2666 40.1822 48.4266C41.0809 48.6644 42.0097 48.9097 42.7741 48.4672C43.55 48.0181 43.8025 47.0822 44.0466 46.1769C44.2078 45.5791 44.3747 44.9606 44.6663 44.6691C44.9578 44.3775 45.5759 44.2109 46.1741 44.0497C47.0803 43.8056 48.015 43.5531 48.4641 42.7775C48.9066 42.0131 48.6613 41.0837 48.4237 40.1838C48.2634 39.5778 48.0981 38.9516 48.2081 38.5403C48.3125 38.1562 48.7553 37.7131 49.1847 37.2828ZM47.3675 40.4625C47.5481 41.1469 47.735 41.8544 47.5187 42.2278C47.2959 42.6128 46.5812 42.8059 45.8906 42.9919C45.1537 43.1906 44.3922 43.3959 43.8941 43.8941C43.3959 44.3922 43.1903 45.1537 42.9919 45.8906C42.8044 46.5816 42.6128 47.2969 42.2278 47.5191C41.8528 47.7353 41.1469 47.5478 40.4628 47.3675C39.7191 47.1709 38.9497 46.9684 38.2575 47.1528C37.5925 47.3303 37.0422 47.8794 36.5103 48.4103C35.9963 48.9231 35.465 49.4531 35 49.4531C34.535 49.4531 34.0037 48.9219 33.49 48.4103C32.9587 47.8791 32.4078 47.3303 31.7425 47.1528C31.5494 47.1028 31.3507 47.0783 31.1512 47.08C30.6033 47.1076 30.061 47.2042 29.5372 47.3675C28.8531 47.5478 28.1453 47.7344 27.7722 47.5187C27.3869 47.2959 27.1941 46.5812 27.0078 45.8906C26.8094 45.1537 26.6041 44.3922 26.1059 43.8941C25.6078 43.3959 24.8459 43.1903 24.1094 42.9919C23.4184 42.8044 22.7031 42.6128 22.4813 42.2278C22.265 41.8528 22.4519 41.1469 22.6325 40.4628C22.8291 39.7191 23.0325 38.9497 22.8472 38.2575C22.6694 37.5925 22.1206 37.0422 21.5897 36.5103C21.0772 35.9963 20.5469 35.465 20.5469 35C20.5469 34.535 21.0781 34.0037 21.5897 33.4897C22.1209 32.9584 22.6694 32.4075 22.8472 31.7425C23.0325 31.0503 22.8291 30.2809 22.6325 29.5369C22.4519 28.8528 22.2653 28.1456 22.4813 27.7722C22.7041 27.3872 23.4187 27.1941 24.1094 27.0081C24.8463 26.8094 25.6094 26.6041 26.1059 26.1059C26.6025 25.6078 26.8097 24.8463 27.0081 24.1094C27.1956 23.4184 27.3872 22.7031 27.7722 22.4809C28.145 22.2647 28.8528 22.4519 29.5372 22.6325C30.2812 22.8294 31.0509 23.0322 31.7425 22.8472C32.4078 22.6697 32.9578 22.1206 33.49 21.5897C34.0037 21.0769 34.535 20.5469 35 20.5469C35.465 20.5469 35.9963 21.0781 36.5103 21.5897C37.0416 22.1209 37.5925 22.6697 38.2575 22.8472C38.9497 23.0322 39.7191 22.8294 40.4625 22.6325C41.1469 22.4522 41.8541 22.265 42.2278 22.4813C42.6128 22.7041 42.8059 23.4187 42.9919 24.1094C43.1906 24.8463 43.3959 25.6094 43.8941 26.1059C44.3922 26.6025 45.1537 26.8097 45.8906 27.0081C46.5816 27.1956 47.2969 27.3872 47.5191 27.7722C47.735 28.1472 47.5481 28.8531 47.3675 29.5372C47.1709 30.2809 46.9678 31.0503 47.1528 31.7425C47.3303 32.4075 47.8794 32.9578 48.4103 33.4897C48.9231 34.0037 49.4531 34.535 49.4531 35C49.4531 35.465 48.9219 35.9963 48.4103 36.5103C47.8791 37.0416 47.3303 37.5925 47.1528 38.2575C46.9688 38.9494 47.1709 39.7188 47.3675 40.4625Z" fill="#232323"/>
<path d="M39.2722 30.5842C39.0362 30.5836 38.8023 30.6298 38.5843 30.7202C38.3662 30.8106 38.1683 30.9433 38.0019 31.1108L34.0347 35.0774L31.9982 33.0408C31.8318 32.8719 31.6336 32.7376 31.4151 32.6456C31.1965 32.5536 30.962 32.5058 30.7249 32.5049C30.4878 32.504 30.2528 32.55 30.0336 32.6403C29.8144 32.7306 29.6152 32.8634 29.4475 33.0311C29.2798 33.1987 29.147 33.3979 29.0567 33.6171C28.9663 33.8363 28.9203 34.0713 28.9212 34.3084C28.922 34.5455 28.9698 34.7801 29.0618 34.9986C29.1537 35.2171 29.288 35.4153 29.4569 35.5817L32.7641 38.8889C32.9309 39.0559 33.129 39.1883 33.347 39.2787C33.565 39.369 33.7987 39.4155 34.0347 39.4155C34.2707 39.4155 34.5044 39.369 34.7224 39.2787C34.9404 39.1883 35.1385 39.0559 35.3053 38.8889L40.5428 33.6521C40.7941 33.4007 40.9652 33.0805 41.0345 32.7319C41.1038 32.3834 41.0682 32.0221 40.9322 31.6937C40.7963 31.3654 40.566 31.0847 40.2705 30.8872C39.975 30.6897 39.6276 30.5843 39.2722 30.5842ZM39.7697 32.8783L34.5313 38.1158C34.3973 38.2435 34.2192 38.3148 34.0341 38.3148C33.8489 38.3148 33.6709 38.2435 33.5369 38.1158L30.2303 34.8086C30.165 34.7433 30.1133 34.6658 30.0779 34.5805C30.0426 34.4952 30.0244 34.4038 30.0244 34.3114C30.0244 34.2191 30.0426 34.1277 30.0779 34.0424C30.1133 33.957 30.165 33.8795 30.2303 33.8142C30.2956 33.7489 30.3731 33.6972 30.4585 33.6618C30.5438 33.6265 30.6352 33.6083 30.7275 33.6083C30.8199 33.6083 30.9113 33.6265 30.9966 33.6618C31.0819 33.6972 31.1594 33.7489 31.2247 33.8142L33.6481 36.2374C33.6989 36.2882 33.7591 36.3285 33.8255 36.356C33.8918 36.3835 33.9629 36.3977 34.0347 36.3977C34.1065 36.3977 34.1776 36.3835 34.2439 36.356C34.3103 36.3285 34.3705 36.2882 34.4213 36.2374L38.7756 31.8836C38.9094 31.7555 39.0875 31.6841 39.2727 31.6841C39.4579 31.6841 39.6359 31.7555 39.7697 31.8836C39.835 31.9489 39.8868 32.0264 39.9221 32.1116C39.9574 32.1969 39.9756 32.2883 39.9756 32.3806C39.9756 32.473 39.9574 32.5644 39.9221 32.6496C39.8868 32.7349 39.835 32.8124 39.7697 32.8777V32.8783Z" fill="#232323"/>
</svg>
