<svg width="16" height="16" viewBox="0 0 16 16" fill="none" xmlns="http://www.w3.org/2000/svg">
<path d="M12.6451 9.91125C12.3176 9.57018 11.9225 9.38783 11.5037 9.38783C11.0884 9.38783 10.6899 9.5668 10.3488 9.90787L9.28172 10.9716C9.19392 10.9243 9.10612 10.8804 9.0217 10.8365C8.90013 10.7757 8.78532 10.7183 8.68739 10.6575C7.68782 10.0227 6.77943 9.19534 5.90819 8.12486C5.48608 7.59131 5.20242 7.14218 4.99642 6.6863C5.27333 6.43303 5.52998 6.16963 5.77987 5.91636C5.87442 5.82181 5.96897 5.72388 6.06353 5.62933C6.77268 4.92018 6.77268 4.00166 6.06353 3.29251L5.14163 2.37061C5.03695 2.26593 4.92889 2.15786 4.82758 2.0498C4.62496 1.84044 4.41222 1.62431 4.19272 1.4217C3.86516 1.09752 3.47344 0.925293 3.06146 0.925293C2.64947 0.925293 2.251 1.09752 1.91331 1.4217C1.90993 1.42508 1.90993 1.42508 1.90655 1.42845L0.758404 2.58673C0.326159 3.01898 0.0796448 3.54577 0.0256142 4.157C-0.0554316 5.14305 0.234983 6.06157 0.457859 6.66266C1.00492 8.13837 1.82213 9.50602 3.04119 10.9716C4.52028 12.7377 6.29991 14.1324 8.33281 15.1151C9.1095 15.4831 10.1462 15.9188 11.3045 15.9931C11.3754 15.9964 11.4497 15.9998 11.5172 15.9998C12.2973 15.9998 12.9524 15.7195 13.4657 15.1623C13.4691 15.1556 13.4758 15.1522 13.4792 15.1455C13.6548 14.9327 13.8574 14.7402 14.0702 14.5342C14.2154 14.3958 14.364 14.2506 14.5092 14.0986C14.8435 13.7508 15.0191 13.3456 15.0191 12.9302C15.0191 12.5115 14.8401 12.1096 14.499 11.7719L12.6451 9.91125ZM13.8541 13.4671C13.8507 13.4671 13.8507 13.4705 13.8541 13.4671C13.7224 13.609 13.5873 13.7373 13.4421 13.8791C13.2226 14.0885 12.9997 14.308 12.7903 14.5545C12.4493 14.9192 12.0474 15.0914 11.5206 15.0914C11.47 15.0914 11.4159 15.0914 11.3653 15.0881C10.3623 15.0239 9.43031 14.6322 8.73129 14.2979C6.81996 13.3726 5.14163 12.059 3.74697 10.3941C2.59544 9.00624 1.82551 7.72301 1.31559 6.34523C1.00154 5.50438 0.886726 4.84926 0.93738 4.23129C0.971149 3.83619 1.12311 3.50863 1.40339 3.22835L2.55492 2.07682C2.72039 1.92148 2.89599 1.83706 3.06821 1.83706C3.28096 1.83706 3.45318 1.96538 3.56124 2.07344C3.56462 2.07682 3.56799 2.0802 3.57137 2.08357C3.77736 2.27606 3.97322 2.47529 4.17921 2.68804C4.2839 2.7961 4.39196 2.90416 4.50002 3.0156L5.42192 3.9375C5.77987 4.29545 5.77987 4.62639 5.42192 4.98434C5.32399 5.08227 5.22943 5.1802 5.1315 5.27475C4.84784 5.56517 4.57769 5.83532 4.2839 6.09872C4.27714 6.10547 4.27039 6.10885 4.26701 6.1156C3.9766 6.40602 4.03063 6.68968 4.09141 6.88216C4.09479 6.89229 4.09817 6.90242 4.10154 6.91255C4.3413 7.49338 4.679 8.04044 5.19229 8.69218L5.19566 8.69556C6.12769 9.84371 7.11037 10.7386 8.19436 11.4241C8.33281 11.5119 8.47464 11.5828 8.60972 11.6504C8.73129 11.7111 8.8461 11.7685 8.94403 11.8293C8.95754 11.8361 8.97105 11.8462 8.98456 11.853C9.09937 11.9104 9.20743 11.9374 9.31887 11.9374C9.59915 11.9374 9.77475 11.7618 9.83216 11.7044L10.9871 10.5495C11.1019 10.4347 11.2842 10.2962 11.497 10.2962C11.7063 10.2962 11.8786 10.4279 11.9832 10.5427C11.9866 10.5461 11.9866 10.5461 11.99 10.5495L13.8507 12.4102C14.1985 12.7546 14.1985 13.1092 13.8541 13.4671Z"/>
<path d="M8.64673 3.80573C9.53148 3.95431 10.3352 4.37305 10.9768 5.01466C11.6184 5.65627 12.0338 6.45998 12.1857 7.34473C12.2229 7.56761 12.4154 7.72294 12.6349 7.72294C12.6619 7.72294 12.6855 7.71957 12.7125 7.71619C12.9624 7.67567 13.1279 7.43928 13.0874 7.18939C12.905 6.11891 12.3985 5.14298 11.6252 4.36967C10.8518 3.59636 9.87592 3.08982 8.80545 2.90747C8.55556 2.86695 8.32255 3.03242 8.27865 3.27893C8.23475 3.52544 8.39684 3.76521 8.64673 3.80573Z"/>
<path d="M15.9814 7.05794C15.6808 5.29519 14.8501 3.69116 13.5737 2.41469C12.2972 1.13821 10.6931 0.307495 8.9304 0.00695018C8.68389 -0.0369496 8.45088 0.131896 8.40698 0.37841C8.36646 0.628302 8.53192 0.861308 8.78182 0.905208C10.3555 1.17198 11.7906 1.91828 12.932 3.0563C14.0734 4.1977 14.8164 5.63288 15.0831 7.20652C15.1203 7.4294 15.3128 7.58474 15.5323 7.58474C15.5593 7.58474 15.5829 7.58136 15.6099 7.57798C15.8564 7.54084 16.0253 7.30445 15.9814 7.05794Z"/>
</svg>
