<svg width="12" height="12" viewBox="0 0 12 12" fill="none" xmlns="http://www.w3.org/2000/svg">
<g clip-path="url(#clip0)">
<path d="M6.6627 6.00099L11.8625 0.801207C12.0455 0.618137 12.0455 0.321326 11.8625 0.138279C11.6794 -0.0447675 11.3826 -0.0447909 11.1995 0.138279L5.99975 5.33807L0.799987 0.138279C0.616917 -0.0447909 0.320105 -0.0447909 0.137058 0.138279C-0.0459882 0.321349 -0.0460116 0.618161 0.137058 0.801207L5.33682 6.00097L0.137058 11.2008C-0.0460116 11.3838 -0.0460116 11.6806 0.137058 11.8637C0.228582 11.9552 0.348558 12.001 0.468534 12.001C0.588511 12.001 0.708464 11.9552 0.80001 11.8637L5.99975 6.66392L11.1995 11.8637C11.291 11.9552 11.411 12.001 11.531 12.001C11.651 12.001 11.7709 11.9552 11.8625 11.8637C12.0455 11.6806 12.0455 11.3838 11.8625 11.2008L6.6627 6.00099Z" fill="white"/>
</g>
<defs>
<clipPath id="clip0">
<rect width="12" height="12" fill="white"/>
</clipPath>
</defs>
</svg>
