<svg width="16" height="16" viewBox="0 0 16 16" fill="none" xmlns="http://www.w3.org/2000/svg">
<path fill-rule="evenodd" clip-rule="evenodd" d="M6.2019 10.3526C6.0579 10.3526 5.9139 10.2979 5.8044 10.1876C5.58465 9.96785 5.58465 9.61235 5.8044 9.3926L9.3984 5.7986C9.61815 5.57885 9.97365 5.57885 10.1934 5.7986C10.4132 6.01835 10.4132 6.37385 10.1934 6.5936L6.5994 10.1876C6.4899 10.2979 6.3459 10.3526 6.2019 10.3526" fill="#232323"/>
<path fill-rule="evenodd" clip-rule="evenodd" d="M9.79737 10.3549C9.65337 10.3549 9.50937 10.3001 9.39987 10.1899L5.80287 6.59214C5.58312 6.37239 5.58312 6.01689 5.80287 5.79714C6.02337 5.57739 6.37887 5.57739 6.59787 5.79714L10.1949 9.39489C10.4146 9.61464 10.4146 9.97014 10.1949 10.1899C10.0854 10.3001 9.94062 10.3549 9.79737 10.3549" fill="#232323"/>
<path fill-rule="evenodd" clip-rule="evenodd" d="M4.74875 1.625C2.85125 1.625 1.625 2.92475 1.625 4.937V11.063C1.625 13.0752 2.85125 14.375 4.74875 14.375H11.2498C13.148 14.375 14.375 13.0752 14.375 11.063V4.937C14.375 2.92475 13.148 1.625 11.2505 1.625H4.74875ZM11.2498 15.5H4.74875C2.207 15.5 0.5 13.7165 0.5 11.063V4.937C0.5 2.2835 2.207 0.5 4.74875 0.5H11.2505C13.7922 0.5 15.5 2.2835 15.5 4.937V11.063C15.5 13.7165 13.7923 15.5 11.2498 15.5V15.5Z" fill="#232323"/>
</svg>
