<svg width="20" height="20" viewBox="0 0 20 20" fill="none" xmlns="http://www.w3.org/2000/svg">
<g clip-path="url(#clip0_186:8147)">
<path d="M1.03344 20C0.769989 20 0.506539 19.8998 0.306377 19.6982C-0.0954526 19.2963 -0.0954526 18.6449 0.306377 18.2431L18.2481 0.301372C18.6499 -0.100457 19.3014 -0.100457 19.7032 0.301372C20.105 0.703201 20.105 1.35467 19.7032 1.75675L1.76175 19.6982C1.56009 19.8986 1.29664 20 1.03344 20Z" fill="#232323"/>
<path d="M18.9764 20C18.7129 20 18.4497 19.8998 18.2493 19.6982L0.306377 1.75675C-0.0954526 1.35467 -0.0954526 0.703201 0.306377 0.301372C0.708207 -0.100457 1.35967 -0.100457 1.76175 0.301372L19.7032 18.2431C20.105 18.6449 20.105 19.2963 19.7032 19.6982C19.5015 19.8986 19.2383 20 18.9764 20Z" fill="#232323"/>
</g>
<defs>
<clipPath id="clip0_186:8147">
<rect width="20" height="20" fill="white"/>
</clipPath>
</defs>
</svg>
