<svg width="20" height="24" viewBox="0 0 20 24" fill="none" xmlns="http://www.w3.org/2000/svg">
<g filter="url(#filter0_d)">
<path d="M18.8602 10.9341C18.8602 9.77042 17.9135 8.82377 16.7499 8.82377C16.413 8.82377 16.0946 8.90351 15.8119 9.04447C15.5252 8.21892 14.74 7.62447 13.8181 7.62447C13.4034 7.62447 13.0165 7.74524 12.6899 7.95274C12.3193 7.34428 11.6494 6.93709 10.8863 6.93709C10.5951 6.93709 10.3175 6.99642 10.0649 7.10357V4.58003C10.0649 3.45789 9.1519 2.54492 8.02972 2.54492C6.90753 2.54492 5.99456 3.45789 5.99456 4.58003V11.147C5.58871 10.5065 4.95916 10.0604 4.21958 9.88973C3.47339 9.71745 2.70477 9.84655 2.05559 10.253L1.44266 10.6367C1.15289 10.8182 1.05524 11.1943 1.22016 11.4938C1.24744 11.5433 3.96057 16.4744 5.06132 18.8331C5.08013 18.8733 5.09895 18.913 5.11785 18.9521C5.56113 19.8692 6.25559 20.6395 7.1262 21.1797C7.99148 21.7167 8.98857 22.0005 10.0096 22.0005H13.2776C14.7477 22.0005 16.1325 21.4307 17.1769 20.396C18.2213 19.3614 18.8041 17.9821 18.8179 16.512L18.8601 12.0229C18.8601 12.0218 18.86 12.0208 18.86 12.0197C18.86 12.0188 18.8601 12.0178 18.8601 12.0168V10.9341H18.8602ZM16.2699 19.4804C15.4684 20.2743 14.4057 20.7116 13.2776 20.7116H10.0097C8.42427 20.7116 6.9596 19.8008 6.27828 18.3912C6.26182 18.3572 6.24541 18.3226 6.22917 18.2879C5.31556 16.3302 3.38188 12.7611 2.64201 11.4065L2.73957 11.3453C3.09662 11.1218 3.51927 11.0508 3.92981 11.1456C4.34026 11.2403 4.68915 11.4893 4.91211 11.8466L6.09226 13.7383C6.24447 13.9823 6.53982 14.0958 6.81641 14.0167C7.09286 13.9375 7.28344 13.6848 7.28344 13.3972V4.58003C7.28344 4.16855 7.61824 3.83376 8.02976 3.83376C8.44128 3.83376 8.77608 4.16855 8.77608 4.58003V12.0168C8.77608 12.3727 9.06461 12.6612 9.4205 12.6612C9.77639 12.6612 10.0649 12.3727 10.0649 12.0168V9.04743C10.0649 8.59449 10.4334 8.22597 10.8864 8.22597C11.3393 8.22597 11.7079 8.59449 11.7079 9.04743V12.0168C11.7079 12.3727 11.9964 12.6612 12.3523 12.6612C12.7082 12.6612 12.9967 12.3727 12.9967 12.0168V9.73481C12.9967 9.28187 13.3652 8.91335 13.8182 8.91335C14.2711 8.91335 14.6396 9.28187 14.6396 9.73481V12.0168C14.6396 12.3727 14.9282 12.6612 15.284 12.6612C15.6399 12.6612 15.9285 12.3727 15.9285 12.0168V10.9341C15.9285 10.4812 16.297 10.1127 16.75 10.1127C17.2029 10.1127 17.5714 10.4812 17.5714 10.9341V12.013L17.5292 16.4999C17.5185 17.6279 17.0713 18.6864 16.2699 19.4804Z" fill="#8C772C"/>
<path d="M3.93568 5.36039C4.29157 5.36039 4.58009 5.07186 4.58009 4.71597C4.58009 2.82624 6.11755 1.28883 8.00728 1.28883C9.89701 1.28883 11.4345 2.82624 11.4345 4.71597C11.4345 5.07186 11.723 5.36039 12.0789 5.36039C12.4348 5.36039 12.7233 5.07186 12.7233 4.71597C12.7233 2.11558 10.6077 0 8.00728 0C5.40684 0 3.29126 2.11558 3.29126 4.71597C3.29126 5.0719 3.57979 5.36039 3.93568 5.36039Z" fill="#8C772C"/>
</g>
<defs>
<filter id="filter0_d" x="0.140137" y="0" width="19.72" height="24.0005" filterUnits="userSpaceOnUse" color-interpolation-filters="sRGB">
<feFlood flood-opacity="0" result="BackgroundImageFix"/>
<feColorMatrix in="SourceAlpha" type="matrix" values="0 0 0 0 0 0 0 0 0 0 0 0 0 0 0 0 0 0 127 0" result="hardAlpha"/>
<feOffset dy="1"/>
<feGaussianBlur stdDeviation="0.5"/>
<feComposite in2="hardAlpha" operator="out"/>
<feColorMatrix type="matrix" values="0 0 0 0 1 0 0 0 0 1 0 0 0 0 1 0 0 0 0.6 0"/>
<feBlend mode="normal" in2="BackgroundImageFix" result="effect1_dropShadow"/>
<feBlend mode="normal" in="SourceGraphic" in2="effect1_dropShadow" result="shape"/>
</filter>
</defs>
</svg>
