<svg width="18" height="22" viewBox="0 0 18 22" fill="none" xmlns="http://www.w3.org/2000/svg">
<path d="M17.8602 10.9341C17.8602 9.77042 16.9135 8.82377 15.7499 8.82377C15.413 8.82377 15.0946 8.90351 14.8119 9.04447C14.5252 8.21892 13.74 7.62447 12.8181 7.62447C12.4034 7.62447 12.0165 7.74524 11.6899 7.95274C11.3193 7.34428 10.6494 6.93709 9.88633 6.93709C9.5951 6.93709 9.31748 6.99642 9.06487 7.10357V4.58003C9.06487 3.45789 8.1519 2.54492 7.02972 2.54492C5.90753 2.54492 4.99456 3.45789 4.99456 4.58003V11.147C4.58871 10.5065 3.95916 10.0604 3.21958 9.88973C2.47339 9.71745 1.70477 9.84655 1.05559 10.253L0.44266 10.6367C0.152887 10.8182 0.0552366 11.1943 0.220164 11.4938C0.247445 11.5433 2.96057 16.4744 4.06132 18.8331C4.08013 18.8733 4.09895 18.913 4.11785 18.9521C4.56113 19.8692 5.25559 20.6395 6.1262 21.1797C6.99148 21.7167 7.98857 22.0005 9.00962 22.0005H12.2776C13.7477 22.0005 15.1325 21.4307 16.1769 20.396C17.2213 19.3614 17.8041 17.9821 17.8179 16.512L17.8601 12.0229C17.8601 12.0218 17.86 12.0208 17.86 12.0197C17.86 12.0188 17.8601 12.0178 17.8601 12.0168V10.9341H17.8602ZM15.2699 19.4804C14.4684 20.2743 13.4057 20.7116 12.2776 20.7116H9.00967C7.42427 20.7116 5.9596 19.8008 5.27828 18.3912C5.26182 18.3572 5.24541 18.3226 5.22917 18.2879C4.31556 16.3302 2.38188 12.7611 1.64201 11.4065L1.73957 11.3453C2.09662 11.1218 2.51927 11.0508 2.92981 11.1456C3.34026 11.2403 3.68915 11.4893 3.91211 11.8466L5.09226 13.7383C5.24447 13.9823 5.53982 14.0958 5.81641 14.0167C6.09286 13.9375 6.28344 13.6848 6.28344 13.3972V4.58003C6.28344 4.16855 6.61824 3.83376 7.02976 3.83376C7.44128 3.83376 7.77608 4.16855 7.77608 4.58003V12.0168C7.77608 12.3727 8.06461 12.6612 8.4205 12.6612C8.77639 12.6612 9.06491 12.3727 9.06491 12.0168V9.04743C9.06491 8.59449 9.43343 8.22597 9.88637 8.22597C10.3393 8.22597 10.7079 8.59449 10.7079 9.04743V12.0168C10.7079 12.3727 10.9964 12.6612 11.3523 12.6612C11.7082 12.6612 11.9967 12.3727 11.9967 12.0168V9.73481C11.9967 9.28187 12.3652 8.91335 12.8182 8.91335C13.2711 8.91335 13.6396 9.28187 13.6396 9.73481V12.0168C13.6396 12.3727 13.9282 12.6612 14.284 12.6612C14.6399 12.6612 14.9285 12.3727 14.9285 12.0168V10.9341C14.9285 10.4812 15.297 10.1127 15.75 10.1127C16.2029 10.1127 16.5714 10.4812 16.5714 10.9341V12.013L16.5292 16.4999C16.5185 17.6279 16.0713 18.6864 15.2699 19.4804Z" fill="#8C772C"/>
<path d="M2.93568 5.36039C3.29157 5.36039 3.58009 5.07186 3.58009 4.71597C3.58009 2.82624 5.11755 1.28883 7.00728 1.28883C8.89701 1.28883 10.4345 2.82624 10.4345 4.71597C10.4345 5.07186 10.723 5.36039 11.0789 5.36039C11.4348 5.36039 11.7233 5.07186 11.7233 4.71597C11.7233 2.11558 9.60772 0 7.00728 0C4.40684 0 2.29126 2.11558 2.29126 4.71597C2.29126 5.0719 2.57979 5.36039 2.93568 5.36039Z" fill="#8C772C"/>
</svg>
