<svg width="70" height="70" viewBox="0 0 70 70" fill="none" xmlns="http://www.w3.org/2000/svg">
<path d="M30 2.88675C33.094 1.10042 36.906 1.10042 40 2.88675L60.3109 14.6132C63.4049 16.3996 65.3109 19.7008 65.3109 23.2735V46.7265C65.3109 50.2992 63.4049 53.6004 60.3109 55.3868L40 67.1133C36.906 68.8996 33.094 68.8996 30 67.1133L9.68911 55.3868C6.5951 53.6004 4.68911 50.2992 4.68911 46.7265V23.2735C4.68911 19.7008 6.5951 16.3996 9.68911 14.6132L30 2.88675Z" fill="#FAD553"/>
<path d="M41.479 27.4572C41.2057 27.1841 40.8425 27.0335 40.4561 27.0335C40.0698 27.0335 39.7065 27.1841 39.4335 27.4572C39.1602 27.7305 39.0096 28.0937 39.0096 28.4801C39.0096 28.8664 39.1602 29.2297 39.4332 29.5027L41.8974 31.9669C42.1704 32.2399 42.5339 32.3905 42.9203 32.3905C43.3066 32.3905 43.6696 32.2399 43.9429 31.9669L49.2076 26.7021C49.4809 26.4288 49.6313 26.0656 49.6313 25.6795C49.6313 25.2931 49.4809 24.9299 49.2076 24.6566C48.9346 24.3833 48.5711 24.2329 48.1848 24.2329C47.7984 24.2329 47.4352 24.3833 47.1621 24.6566L46.5817 25.237C46.1516 24.9088 45.6797 24.6456 45.1796 24.4552V23.7971C45.1796 22.9995 44.5307 22.3506 43.7332 22.3506H39.1977V21.8484C39.1977 20.8292 38.3685 20 37.3493 20H32.2912C31.272 20 30.4428 20.8292 30.4428 21.8484V23.937C30.4428 24.5033 30.9035 24.964 31.4698 24.964H38.1707C38.737 24.964 39.1977 24.5033 39.1977 23.937V23.2309H43.733C44.0452 23.2309 44.2993 23.485 44.2993 23.7971V24.2025C43.937 24.1293 43.5662 24.0903 43.191 24.0903C40.1082 24.0903 37.6001 26.5984 37.6001 29.6812C37.6001 32.7641 40.1082 35.2721 43.191 35.2721C43.5671 35.2721 43.9379 35.2344 44.2993 35.1618V48.5537C44.2993 48.8659 44.0452 49.1197 43.733 49.1197H25.9072C25.595 49.1197 25.3412 48.8659 25.3412 48.5537V23.7971C25.3412 23.485 25.595 23.2309 25.9072 23.2309H28.833C29.0761 23.2309 29.2732 23.0338 29.2732 22.7908C29.2732 22.5477 29.0761 22.3506 28.833 22.3506H25.9072C25.1098 22.3506 24.4609 22.9995 24.4609 23.7971V48.5537C24.4609 49.3511 25.1098 50 25.9072 50H43.7332C44.5307 50 45.1796 49.3511 45.1796 48.5537V34.9073C45.8804 34.6407 46.5267 34.2337 47.0797 33.6983C48.1253 32.686 48.7288 31.3287 48.7787 29.8765C48.787 29.6336 48.597 29.4299 48.3539 29.4215C48.1127 29.4135 47.9074 29.6032 47.8989 29.8463C47.8286 31.8904 46.4844 33.5782 44.6385 34.1671C44.6131 34.173 44.5883 34.1808 44.565 34.1911C44.1306 34.3218 43.6694 34.3919 43.191 34.3919C40.5937 34.3919 38.4804 32.2786 38.4804 29.6812C38.4804 27.0839 40.5937 24.9706 43.191 24.9706C44.1887 24.9706 45.153 25.286 45.9529 25.8658L42.9203 28.8987L41.479 27.4572ZM38.3174 23.937C38.3174 24.018 38.2518 24.0837 38.1707 24.0837H31.4698C31.3887 24.0837 31.323 24.018 31.323 23.937V21.8484C31.323 21.3145 31.7572 20.8803 32.2912 20.8803H37.3493C37.883 20.8803 38.3174 21.3145 38.3174 21.8484V23.937ZM47.7847 25.2792C47.8916 25.172 48.0337 25.1132 48.1848 25.1132C48.3361 25.1132 48.4782 25.1723 48.5853 25.2792C48.806 25.4998 48.806 25.8591 48.5853 26.0798L43.3203 31.3445C43.2135 31.4514 43.0713 31.5105 42.92 31.5105C42.7687 31.5105 42.6266 31.4514 42.5197 31.3445L40.0556 28.8804C39.9487 28.7735 39.8899 28.6314 39.8899 28.4801C39.8899 28.3288 39.9487 28.1866 40.0558 28.0798C40.1627 27.9729 40.3048 27.9138 40.4561 27.9138C40.6072 27.9138 40.7495 27.9729 40.8564 28.0798L42.609 29.8323C42.7809 30.0042 43.0594 30.0042 43.2313 29.8323L47.7847 25.2792Z" fill="#232323"/>
<path d="M36.4398 31.0476H31.0769C30.8338 31.0476 30.637 31.2447 30.637 31.4877C30.637 31.7306 30.8338 31.9277 31.0769 31.9277H36.4398C36.6829 31.9277 36.8799 31.7306 36.8799 31.4877C36.8799 31.2447 36.6829 31.0476 36.4398 31.0476Z" fill="#232323"/>
<path d="M30.2368 26.5046H27.2753C27.0323 26.5046 26.8352 26.7017 26.8352 26.9448C26.8352 27.1879 27.0323 27.3849 27.2753 27.3849H30.2368C30.4799 27.3849 30.677 27.1879 30.677 26.9448C30.677 26.7017 30.4799 26.5046 30.2368 26.5046Z" fill="#232323"/>
<path d="M31.0769 33.9697H36.4398C36.6829 33.9697 36.8799 33.7726 36.8799 33.5295C36.8799 33.2867 36.6829 33.0896 36.4398 33.0896H31.0769C30.8338 33.0896 30.637 33.2867 30.637 33.5295C30.637 33.7726 30.8338 33.9697 31.0769 33.9697Z" fill="#232323"/>
<path d="M38.2924 36.3857H31.0769C30.8338 36.3857 30.637 36.5828 30.637 36.8259C30.637 37.069 30.8338 37.266 31.0769 37.266H38.2924C38.5354 37.266 38.7325 37.069 38.7325 36.8259C38.7325 36.5828 38.5354 36.3857 38.2924 36.3857Z" fill="#232323"/>
<path d="M31.0769 39.3078H34.6847C34.9278 39.3078 35.1246 39.1107 35.1246 38.8676C35.1246 38.6246 34.9278 38.4275 34.6847 38.4275H31.0769C30.8338 38.4275 30.637 38.6246 30.637 38.8676C30.637 39.1107 30.8338 39.3078 31.0769 39.3078Z" fill="#232323"/>
<path d="M31.0769 42.6095H36.4398C36.6829 42.6095 36.8799 42.4125 36.8799 42.1694C36.8799 41.9263 36.6829 41.7292 36.4398 41.7292H31.0769C30.8338 41.7292 30.637 41.9263 30.637 42.1694C30.637 42.4125 30.8338 42.6095 31.0769 42.6095Z" fill="#232323"/>
<path d="M31.0769 44.6513H38.2924C38.5354 44.6513 38.7325 44.4542 38.7325 44.2112C38.7325 43.9683 38.5354 43.7712 38.2924 43.7712H31.0769C30.8338 43.7712 30.637 43.9683 30.637 44.2112C30.637 44.4542 30.8338 44.6513 31.0769 44.6513Z" fill="#232323"/>
<path d="M28.2094 30.666C27.2291 30.666 26.4316 31.4634 26.4316 32.4437C26.4316 33.424 27.2291 34.2215 28.2094 34.2215C29.1897 34.2215 29.9871 33.424 29.9871 32.4437C29.9871 31.4634 29.1897 30.666 28.2094 30.666ZM28.2094 33.3412C27.7145 33.3412 27.3119 32.9386 27.3119 32.4437C27.3119 31.9489 27.7145 31.5463 28.2094 31.5463C28.7042 31.5463 29.1068 31.9489 29.1068 32.4437C29.1068 32.9386 28.7042 33.3412 28.2094 33.3412Z" fill="#232323"/>
<path d="M28.2094 36.0688C27.2291 36.0688 26.4316 36.8665 26.4316 37.8466C26.4316 38.8269 27.2291 39.6243 28.2094 39.6243C29.1897 39.6243 29.9871 38.8269 29.9871 37.8466C29.9871 36.8665 29.1897 36.0688 28.2094 36.0688ZM28.2094 38.7442C27.7145 38.7442 27.3119 38.3416 27.3119 37.8468C27.3119 37.3517 27.7145 36.9491 28.2094 36.9491C28.7042 36.9491 29.1068 37.3517 29.1068 37.8468C29.1068 38.3416 28.7042 38.7442 28.2094 38.7442Z" fill="#232323"/>
<path d="M28.2094 41.4126C27.2291 41.4126 26.4316 42.21 26.4316 43.1903C26.4316 44.1706 27.2291 44.968 28.2094 44.968C29.1897 44.968 29.9871 44.1706 29.9871 43.1903C29.9871 42.21 29.1897 41.4126 28.2094 41.4126ZM28.2094 44.0878C27.7145 44.0878 27.3119 43.6852 27.3119 43.1903C27.3119 42.6955 27.7145 42.2929 28.2094 42.2929C28.7042 42.2929 29.1068 42.6955 29.1068 43.1903C29.1068 43.6852 28.7042 44.0878 28.2094 44.0878Z" fill="#232323"/>
</svg>
