<svg width="12" height="12" viewBox="0 0 12 12" fill="none" xmlns="http://www.w3.org/2000/svg">
<path fill-rule="evenodd" clip-rule="evenodd" d="M8.88141 0.75C9.66366 0.75 10.4162 1.05917 10.9697 1.61392C11.5239 2.1675 11.8337 2.91417 11.8337 3.69583V8.30417C11.8337 9.93167 10.5095 11.25 8.88141 11.25H3.11866C1.49058 11.25 0.166992 9.93167 0.166992 8.30417V3.69583C0.166992 2.06833 1.48474 0.75 3.11866 0.75H8.88141ZM9.80949 4.565L9.85616 4.51833C9.99558 4.34917 9.99558 4.10417 9.84974 3.935C9.76866 3.84808 9.65724 3.795 9.54116 3.78333C9.41866 3.77692 9.30199 3.81833 9.21391 3.9L6.58366 6C6.24533 6.28058 5.76058 6.28058 5.41699 6L2.79199 3.9C2.61058 3.76583 2.35974 3.78333 2.20866 3.94083C2.05116 4.09833 2.03366 4.34917 2.16724 4.52417L2.24366 4.6L4.89783 6.67083C5.22449 6.9275 5.62058 7.0675 6.03533 7.0675C6.44891 7.0675 6.85199 6.9275 7.17808 6.67083L9.80949 4.565Z"/>
</svg>
