<svg width="111" height="93" viewBox="0 0 111 93" fill="none" xmlns="http://www.w3.org/2000/svg">
<path d="M122.883 63.9694L107.626 27.3407C107.409 26.8196 106.988 26.4091 106.462 26.2042L68.2522 11.3161C63.9759 9.64991 59.1419 11.772 57.4764 16.0465L46.9243 43.1282L31.4391 37.0946C28.2398 35.848 24.6231 37.4359 23.3768 40.6345L12.0624 69.6729C10.8162 72.8712 12.4052 76.4875 15.6045 77.7341L31.0897 83.7677L24.3026 101.187C22.64 105.454 24.7664 110.281 29.0426 111.947L87.0702 134.557C91.3464 136.223 96.1774 134.109 97.839 129.844L122.901 65.5222C123.096 65.0218 123.09 64.4652 122.883 63.9694ZM104.906 31.6154L117.432 61.6842L96.3857 53.484L104.906 31.6154ZM17.1126 73.8637C16.0473 73.4486 15.5183 72.2453 15.933 71.181L27.2474 42.1426C27.662 41.0783 28.866 40.55 29.9311 40.965L82.1889 61.3265C83.2542 61.7416 83.7831 62.9451 83.3684 64.0094L72.054 93.0478C71.6394 94.1121 70.4354 94.6402 69.3704 94.2252L17.1126 73.8637ZM93.9685 128.336C93.1383 130.467 90.7202 131.521 88.578 130.686L30.5507 108.077C28.4085 107.242 27.3418 104.828 28.1729 102.695L34.9601 85.2757L67.8623 98.0956C71.0617 99.3422 74.6784 97.7543 75.9246 94.5559L87.239 65.5175C88.4853 62.319 86.8963 58.7028 83.6969 57.4562L50.7947 44.6363L61.3467 17.5545C62.1808 15.4139 64.602 14.3518 66.7441 15.1864L101.563 28.7533L91.7611 53.9111C91.3446 54.9799 91.8736 56.1839 92.9422 56.6003L118.1 66.4027L93.9685 128.336Z" fill="#F2F2F2"/>
<path d="M43.2081 58.1299C42.8911 57.0442 42.3048 56.191 41.4496 55.5705C40.8944 55.1627 39.5964 54.5612 37.5553 53.7659L32.1692 51.6672L25.6922 68.2904L29.0486 69.5982L31.4918 63.3276L33.6804 64.1804C35.1999 64.7724 36.3912 65.1451 37.2544 65.2986C37.8941 65.3998 38.5766 65.3632 39.3021 65.1886C40.0275 65.0142 40.7108 64.6513 41.3522 64.1003C41.9937 63.5493 42.5132 62.7633 42.9108 61.7428C43.4261 60.4198 43.5251 59.2156 43.2081 58.1299ZM38.5509 61.5853C38.1534 61.8571 37.6977 61.9929 37.1838 61.993C36.6699 61.9931 35.7518 61.7355 34.4288 61.22L32.5919 60.5043L34.4299 55.7872L36.0514 56.419C37.2609 56.8903 38.0512 57.2417 38.4223 57.4734C38.9283 57.7837 39.2824 58.2047 39.4844 58.7362C39.6866 59.2677 39.6699 59.836 39.4343 60.4406C39.243 60.932 38.9484 61.3134 38.5509 61.5853Z" fill="#F2F2F2"/>
<path d="M59.2693 67.4572C59.3204 66.2537 59.1408 65.1499 58.7312 64.1456C58.3215 63.1414 57.6848 62.3056 56.8217 61.6383C56.1785 61.1439 55.1651 60.6272 53.7818 60.0882L47.6472 57.698L41.1702 74.3212L47.4862 76.7821C48.726 77.2652 49.7618 77.5339 50.594 77.588C51.708 77.6565 52.6665 77.5206 53.4694 77.1803C54.5321 76.7323 55.5069 75.9847 56.394 74.9372C57.1201 74.0794 57.7496 72.9664 58.2827 71.5982C58.8895 70.041 59.2183 68.6607 59.2693 67.4572ZM53.3438 73.011C52.8268 73.6673 52.3256 74.088 51.8399 74.273C51.3542 74.4581 50.8127 74.5127 50.2154 74.4367C49.7585 74.3806 49.0612 74.1698 48.1238 73.8046L45.6179 72.8282L49.9079 61.8179L51.416 62.4055C52.7841 62.9386 53.6822 63.3494 54.1095 63.6379C54.6839 64.0184 55.1001 64.481 55.3581 65.0257C55.6161 65.5704 55.7244 66.2306 55.6832 67.0069C55.642 67.7832 55.371 68.8138 54.8703 70.099C54.3696 71.384 53.8608 72.3546 53.3438 73.011Z" fill="#F2F2F2"/>
<path d="M74.7518 71.498L75.8475 68.6859L64.4517 64.2456L57.9747 80.8688L61.3311 82.1766L64.0835 75.1124L71.0232 77.8163L72.1189 75.0041L65.1793 72.3002L66.7123 68.3656L74.7518 71.498Z" fill="#F2F2F2"/>
</svg>
