<svg width="70" height="70" viewBox="0 0 70 70" fill="none" xmlns="http://www.w3.org/2000/svg">
<path d="M30 2.88675C33.094 1.10042 36.906 1.10042 40 2.88675L60.3109 14.6132C63.4049 16.3996 65.3109 19.7008 65.3109 23.2735V46.7265C65.3109 50.2992 63.4049 53.6004 60.3109 55.3868L40 67.1133C36.906 68.8996 33.094 68.8996 30 67.1133L9.68911 55.3868C6.5951 53.6004 4.68911 50.2992 4.68911 46.7265V23.2735C4.68911 19.7008 6.5951 16.3996 9.68911 14.6132L30 2.88675Z" fill="#FAD553"/>
<g clip-path="url(#clip0)">
<path d="M48.0808 31.7401C47.9698 31.6306 47.8225 31.5691 47.6673 31.5723C44.5728 31.5982 41.4805 32.9485 39.1832 35.2769C36.9105 37.5802 35.6116 40.6324 35.5933 43.6895L34.9275 44.3552V38.7314C37.0483 36.5974 38.3423 33.686 38.5732 30.5203C38.5908 30.2782 38.4089 30.0677 38.1668 30.0501C37.9257 30.0324 37.7142 30.2144 37.6966 30.4564C37.5048 33.0871 36.5301 35.5264 34.9275 37.4306V26.507C34.9275 26.2643 34.7308 26.0675 34.4881 26.0675C34.2454 26.0675 34.0486 26.2643 34.0486 26.507V37.3077C32.2746 35.1877 31.2641 32.3884 31.2444 29.4549C31.223 26.2649 32.3814 23.2023 34.4315 21.0031C36.3126 22.965 37.4673 25.6052 37.6917 28.4718C37.7106 28.7138 37.9231 28.8946 38.1641 28.8757C38.4061 28.8567 38.5869 28.6452 38.568 28.4032C38.3191 25.2244 36.9974 22.301 34.8462 20.1714C34.7334 20.0598 34.5818 20.0003 34.4247 20C34.2658 20.0011 34.1169 20.064 34.0057 20.1771C31.6687 22.5535 30.342 25.9372 30.3656 29.4607C30.389 32.9513 31.7283 36.2698 34.0487 38.6126V41.0858L31.3443 38.3814C31.3201 36.0937 30.3263 33.8175 28.6038 32.1179C26.891 30.428 24.6055 29.461 22.3274 29.461C22.3139 29.461 22.3003 29.461 22.2867 29.4611C22.1413 29.4618 22.0048 29.5193 21.9026 29.623C21.8002 29.7267 21.7446 29.8638 21.7459 30.0092C21.765 32.3008 22.7642 34.5901 24.4872 36.2901C26.1794 37.9597 28.4184 38.9187 30.6658 38.9458L33.9732 42.2531C33.9965 42.2765 34.022 42.2964 34.0487 42.3134V48.4995L33.2534 47.7043C33.2353 45.7844 32.5642 43.8464 31.3557 42.2333C31.2102 42.0392 30.9348 41.9996 30.7405 42.1452C30.5462 42.2907 30.5068 42.5662 30.6523 42.7604C31.5477 43.9555 32.118 45.3443 32.3063 46.7573L27.0493 41.5002C26.8776 41.3286 26.5994 41.3286 26.4278 41.5002C26.2562 41.6718 26.2562 41.9501 26.4278 42.1217L31.6234 47.3173C29.8119 47.074 28.0573 46.2062 26.6778 44.8451C25.114 43.3023 24.1734 41.2589 24.0648 39.1924C25.9517 39.2645 27.8051 40.0154 29.3169 41.3276C29.5002 41.4867 29.7778 41.4671 29.9369 41.2838C30.0959 41.1005 30.0763 40.8229 29.893 40.6638C28.1414 39.1435 25.9674 38.3079 23.7665 38.3079C23.7519 38.3079 23.737 38.3079 23.7224 38.308C23.5754 38.3087 23.4376 38.3667 23.3342 38.4714C23.2308 38.5762 23.1744 38.7148 23.1756 38.8619C23.1958 41.273 24.2472 43.6818 26.0604 45.4708C27.8435 47.2302 30.2036 48.2397 32.5715 48.2654L34.1772 49.8713C34.2567 49.9508 34.3667 50.0001 34.4881 50.0001C34.7308 50.0001 34.9275 49.8033 34.9275 49.5606V45.5981L36.1368 44.3889C38.8445 44.3771 41.5368 43.3694 43.7288 41.544C43.9153 41.3888 43.9406 41.1117 43.7853 40.9251C43.63 40.7386 43.3529 40.7134 43.1664 40.8686C41.3831 42.3536 39.2478 43.2556 37.0622 43.4636L44.1501 36.3756C44.3217 36.204 44.3217 35.9257 44.1501 35.7542C43.9784 35.5825 43.7002 35.5825 43.5286 35.7542L36.5206 42.7621C36.7656 40.2512 37.9286 37.7998 39.8089 35.8941C41.8688 33.8063 44.6102 32.5646 47.3724 32.4583C47.311 34.979 46.3254 37.4622 44.5783 39.4816C44.4195 39.6652 44.4396 39.9427 44.6232 40.1015C44.8068 40.2603 45.0842 40.2402 45.243 40.0566C47.1992 37.7956 48.2686 34.9881 48.2542 32.1513C48.2534 31.9957 48.1919 31.8496 48.0808 31.7401ZM25.1045 35.6646C23.6327 34.2124 22.7448 32.2912 22.6358 30.3465C24.5816 30.4295 26.5147 31.2915 27.9865 32.7437C29.3015 34.0411 30.1469 35.705 30.392 37.4292L25.4567 32.4939C25.2851 32.3223 25.0068 32.3223 24.8353 32.4939C24.6637 32.6656 24.6637 32.9438 24.8353 33.1154L29.7124 37.9925C28.024 37.7503 26.3916 36.9345 25.1045 35.6646Z" fill="#232323"/>
</g>
<defs>
<clipPath id="clip0">
<rect width="30" height="30" fill="white" transform="translate(20 20)"/>
</clipPath>
</defs>
</svg>
