<svg width="40" height="34" viewBox="0 0 40 34" fill="none" xmlns="http://www.w3.org/2000/svg">
<path d="M9.0409 10.6918L6.77533 12.9574C9.00566 5.64914 16.7382 1.5328 24.0463 3.76313C26.8315 4.61311 29.2775 6.32024 31.0359 8.64135L33.0409 7.12216C27.5952 -0.077178 17.3443 -1.49891 10.1449 3.94681C7.16087 6.20389 5.04161 9.41645 4.14097 13.048L1.77974 10.6918L0 12.4703L5.41221 17.8825L10.8244 12.4703L9.0409 10.6918Z" fill="#969696"/>
<path d="M34.5876 16.0928L29.1754 21.505L30.9552 23.2847L33.2472 20.994C31.0364 28.3139 23.3103 32.4557 15.9904 30.245C13.0789 29.3657 10.538 27.5522 8.76008 25.0846L6.71729 26.5547C9.24191 30.0843 13.0725 32.4584 17.3567 33.1488C18.2347 33.2913 19.1229 33.3633 20.0124 33.364C27.5264 33.3605 34.0676 28.2284 35.8589 20.931L38.2151 23.2847L39.9998 21.505L34.5876 16.0928ZM34.5247 19.719L34.5889 19.6548L34.682 19.7492L34.5247 19.719Z" fill="#969696"/>
</svg>
