<svg width="70" height="70" viewBox="0 0 70 70" fill="none" xmlns="http://www.w3.org/2000/svg">
<path d="M30 2.88675C33.094 1.10042 36.906 1.10042 40 2.88675L60.3109 14.6132C63.4049 16.3996 65.3109 19.7008 65.3109 23.2735V46.7265C65.3109 50.2992 63.4049 53.6004 60.3109 55.3868L40 67.1132C36.906 68.8996 33.094 68.8996 30 67.1132L9.68911 55.3868C6.5951 53.6004 4.68911 50.2992 4.68911 46.7265V23.2735C4.68911 19.7008 6.5951 16.3996 9.68911 14.6132L30 2.88675Z" fill="#FAD553"/>
<g clip-path="url(#clip0)">
<path d="M50 23.7279C50 23.4847 49.8029 23.2876 49.5597 23.2876H20.4403C20.1971 23.2876 20 23.4847 20 23.7279V31.2426C20 31.4858 20.1971 31.6829 20.4403 31.6829H33.1868L20.2384 38.366C20.0936 38.4408 20 38.5943 20 38.7573V46.2719C20 46.5151 20.1971 46.7123 20.4403 46.7123H42.3079C42.5511 46.7123 42.7482 46.5151 42.7482 46.2719C42.7482 46.0288 42.5511 45.8316 42.3079 45.8316H20.8806V39.1976H23.2877V40.6359C23.2877 40.8791 23.4848 41.0762 23.728 41.0762C23.9712 41.0762 24.1683 40.8791 24.1683 40.6359V39.1976H28.9237V42.5146C28.9237 42.7578 29.1208 42.9549 29.364 42.9549C29.6072 42.9549 29.8043 42.7578 29.8043 42.5146V39.1976H34.5597V40.6359C34.5597 40.8791 34.7568 41.0762 35 41.0762C35.2432 41.0762 35.4403 40.8791 35.4403 40.6359V39.1976H40.1957V42.5146C40.1957 42.7578 40.3928 42.9549 40.636 42.9549C40.8792 42.9549 41.0763 42.7578 41.0763 42.5146V39.1976H45.8317V40.6359C45.8317 40.8791 46.0288 41.0762 46.272 41.0762C46.5152 41.0762 46.7123 40.8791 46.7123 40.6359V39.1976H49.1194V45.8316H44.4521C44.2089 45.8316 44.0117 46.0288 44.0117 46.2719C44.0117 46.5151 44.2089 46.7123 44.4521 46.7123H49.5597C49.8029 46.7123 50 46.5151 50 46.2719V38.7573C50 38.5141 49.8029 38.317 49.5597 38.317H36.8132L49.7616 31.6339C49.9062 31.5589 50 31.4056 50 31.2426V23.7279ZM49.1194 30.8023H25.1076V29.3639C25.1076 29.1207 24.9105 28.9236 24.6673 28.9236C23.8742 28.9236 23.229 28.2783 23.229 27.4852C23.229 26.6922 23.8742 26.0469 24.6673 26.0469C24.9105 26.0469 25.1076 25.8498 25.1076 25.6066V24.1682H28.9237V25.6066C28.9237 25.8498 29.1208 26.0469 29.364 26.0469C29.6072 26.0469 29.8043 25.8498 29.8043 25.6066V24.1682H34.5597V27.4852C34.5597 27.7284 34.7568 27.9256 35 27.9256C35.2432 27.9256 35.4403 27.7284 35.4403 27.4852V24.1682H40.1957V25.6066C40.1957 25.8498 40.3928 26.0469 40.636 26.0469C40.8792 26.0469 41.0763 25.8498 41.0763 25.6066V24.1682H45.8317V27.4852C45.8317 27.7284 46.0288 27.9256 46.272 27.9256C46.5152 27.9256 46.7123 27.7284 46.7123 27.4852V24.1682H49.1194V30.8023ZM20.8806 30.8023V24.1682H24.227V25.2082C23.1581 25.4144 22.3483 26.357 22.3483 27.4852C22.3483 28.6135 23.1581 29.5561 24.227 29.7623V30.8023H20.8806ZM47.7465 31.6829C47.7465 31.6829 35.0019 38.2742 34.9658 38.317H22.2535L35.107 31.6829H47.7465Z" fill="#232323"/>
</g>
<defs>
<clipPath id="clip0">
<rect width="30" height="30" fill="white" transform="translate(20 20)"/>
</clipPath>
</defs>
</svg>
