<svg width="70" height="70" viewBox="0 0 70 70" fill="none" xmlns="http://www.w3.org/2000/svg">
<path d="M30 2.88675C33.094 1.10042 36.906 1.10042 40 2.88675L60.3109 14.6132C63.4049 16.3996 65.3109 19.7008 65.3109 23.2735V46.7265C65.3109 50.2992 63.4049 53.6004 60.3109 55.3868L40 67.1133C36.906 68.8996 33.094 68.8996 30 67.1133L9.68911 55.3868C6.5951 53.6004 4.68911 50.2992 4.68911 46.7265V23.2735C4.68911 19.7008 6.5951 16.3996 9.68911 14.6132L30 2.88675Z" fill="#FAD553"/>
<g clip-path="url(#clip0)">
<path d="M50 21.979C50.0018 21.5716 49.8397 21.1805 49.55 20.894L48.106 19.45C47.8208 19.1617 47.4321 18.9997 47.0265 19H47.0215C46.6185 19.0002 46.2324 19.1624 45.95 19.45L39.4001 25.9999H26.5002V20.5C26.5002 19.6715 25.8286 19 25.0002 19H24.0002C21.7921 19.0025 20.0027 20.7919 20.0002 23V45.1253C20.1254 47.3166 21.9505 49.0226 24.1452 48.9998H48.5C49.3284 48.9998 50 48.3282 50 47.4998V27.5C50 26.6715 49.3284 25.9999 48.5 25.9999H46.6001L49.55 23.05C49.8371 22.7674 49.9991 22.3818 50 21.979ZM37.8901 31.4999C37.7843 31.5143 37.6779 31.4771 37.6041 31.3999C37.5297 31.326 37.4929 31.2222 37.5041 31.1179L37.6936 29.418C37.7016 29.3824 37.7116 29.3473 37.7236 29.313L39.6931 31.2824C39.6606 31.2894 39.6311 31.3054 39.5971 31.3094L37.8901 31.4999ZM40.5096 30.6834L38.3216 28.4949L43.7716 23.045L45.9585 25.2315L40.5096 30.6834ZM44.4766 22.3375L45.2181 21.5965L47.404 23.7829L46.663 24.5244L44.4766 22.3375ZM21.0002 23C21.0019 21.3438 22.3441 20.0016 24.0002 20H25.0002C25.2763 20 25.5002 20.2238 25.5002 20.5V40.4998C25.5002 40.7759 25.2764 40.9998 25.0002 40.9998H24.0002C22.8515 40.9994 21.7584 41.4939 21.0002 42.3567V23ZM48.5 26.9999C48.7762 26.9999 49.0001 27.2238 49.0001 27.5V47.4998C49.0001 47.7759 48.7762 47.9998 48.5 47.9998H24.1452C22.4946 48.0276 21.1118 46.7569 21.0002 45.1098V44.9998C21.0019 43.3436 22.3441 42.0015 24.0002 41.9998H25.0002C25.8286 41.9998 26.5002 41.3283 26.5002 40.4998V26.9999H38.4001L37.2646 28.1354C36.9476 28.4478 36.7482 28.86 36.7001 29.3024L36.5106 31.0059C36.495 31.172 36.5108 31.3396 36.5571 31.4999H28.0002C27.7241 31.4999 27.5002 31.7237 27.5002 31.9999C27.5002 32.276 27.724 32.4999 28.0002 32.4999H29.5002V45.9998C29.5002 46.2759 29.724 46.4998 30.0002 46.4998C30.2764 46.4998 30.5002 46.2759 30.5002 45.9998V38.9998H36.0002V42.9998H32.5002C32.224 42.9998 32.0002 43.2237 32.0002 43.4998C32.0002 43.7759 32.224 43.9998 32.5002 43.9998H42.5001C43.0524 43.9998 43.5001 43.5521 43.5001 42.9998V35.4999C43.5001 35.2238 43.2762 34.9999 43.0001 34.9999C42.724 34.9999 42.5001 35.2237 42.5001 35.4999V37.9998H30.5002V32.4999H37.8541C37.9029 32.5 37.9517 32.4973 38.0001 32.4919L39.7086 32.2974C40.1422 32.2482 40.547 32.0555 40.8586 31.7499L45.6026 27H48.5V26.9999ZM42.5001 38.9998V42.9998H37.0001V38.9998H42.5001ZM48.845 22.341L48.111 23.0754L45.9251 20.8895L46.6595 20.155C46.7556 20.0564 46.8873 20.0005 47.025 20C47.1652 20.0003 47.2994 20.0569 47.3975 20.157L48.8435 21.6C48.9441 21.699 49.0005 21.8344 49.0001 21.9755C48.9996 22.1132 48.9437 22.245 48.845 22.341Z" fill="#232323"/>
</g>
<defs>
<clipPath id="clip0">
<rect width="30" height="30" fill="white" transform="translate(20 19)"/>
</clipPath>
</defs>
</svg>
