<svg width="28" height="30" viewBox="0 0 28 30" fill="none" xmlns="http://www.w3.org/2000/svg">
<path d="M20.7937 12.9868V7.30934C20.7937 7.14684 20.7187 6.99669 20.6125 6.8779L14.2473 0.193863C14.1285 0.0688934 13.9595 0 13.7909 0H3.69901C1.83591 0 0.347717 1.51932 0.347717 3.38264V22.4657C0.347717 24.329 1.83591 25.8234 3.69901 25.8234H11.665C13.1717 28.3244 15.9105 30 19.0304 30C23.7699 30 27.6403 26.1484 27.6403 21.4027C27.6467 17.2572 24.6703 13.7933 20.7937 12.9868ZM14.4162 2.19475L18.6866 6.69022H15.9167C15.0914 6.69022 14.4162 6.00883 14.4162 5.18349V2.19475ZM3.69901 24.5728C2.52988 24.5728 1.59833 23.6348 1.59833 22.4657V3.38264C1.59833 2.20711 2.52988 1.25061 3.69901 1.25061H13.1656V5.18349C13.1656 6.7028 14.3974 7.94083 15.9167 7.94083H19.5431V12.824C19.3557 12.8178 19.2055 12.7991 19.043 12.7991C16.8609 12.7991 14.8538 13.637 13.3407 14.9501H5.39983C5.05582 14.9501 4.77452 15.2314 4.77452 15.5752C4.77452 15.9192 5.05582 16.2005 5.39983 16.2005H12.1777C11.7337 16.8258 11.3647 17.4511 11.0772 18.1389H5.39983C5.05582 18.1389 4.77452 18.4202 4.77452 18.7642C4.77452 19.108 5.05582 19.3895 5.39983 19.3895H10.6707C10.5144 20.0148 10.4332 20.7088 10.4332 21.4027C10.4332 22.5282 10.652 23.6412 11.0459 24.5792H3.69901V24.5728ZM19.0368 28.7558C14.9852 28.7558 11.69 25.4606 11.69 21.4089C11.69 17.3573 14.9788 14.062 19.0368 14.062C23.0947 14.062 26.3835 17.3573 26.3835 21.4089C26.3835 25.4606 23.0885 28.7558 19.0368 28.7558Z" fill="#FAD553"/>
<path d="M5.39984 13.068H11.7337C12.0777 13.068 12.359 12.7865 12.359 12.4427C12.359 12.0987 12.0777 11.8174 11.7337 11.8174H5.39984C5.05583 11.8174 4.77454 12.0987 4.77454 12.4427C4.77454 12.7865 5.05583 13.068 5.39984 13.068Z" fill="#FAD553"/>
<path d="M19.4806 16.7943C19.3618 16.6693 19.1993 16.5942 19.0242 16.5942C18.8491 16.5942 18.6866 16.6693 18.5678 16.7943L14.9037 20.7272C14.6661 20.9773 14.6849 21.3774 14.935 21.6088C15.1852 21.8464 15.5915 21.8276 15.829 21.5777L18.4177 18.8078V25.6355C18.4177 25.9795 18.699 26.2608 19.043 26.2608C19.3868 26.2608 19.6683 25.9795 19.6683 25.6355V18.8078L22.238 21.5777C22.3632 21.7088 22.5257 21.7777 22.6946 21.7777C22.8445 21.7777 22.9946 21.7214 23.1196 21.6088C23.3698 21.3712 23.3885 20.9773 23.151 20.7272L19.4806 16.7943Z" fill="#FAD553"/>
</svg>
