<svg width="70" height="70" viewBox="0 0 70 70" fill="none" xmlns="http://www.w3.org/2000/svg">
<path d="M30 2.88675C33.094 1.10042 36.906 1.10042 40 2.88675L60.3109 14.6132C63.4049 16.3996 65.3109 19.7008 65.3109 23.2735V46.7265C65.3109 50.2992 63.4049 53.6004 60.3109 55.3868L40 67.1133C36.906 68.8996 33.094 68.8996 30 67.1133L9.68911 55.3868C6.5951 53.6004 4.68911 50.2992 4.68911 46.7265V23.2735C4.68911 19.7008 6.5951 16.3996 9.68911 14.6132L30 2.88675Z" fill="#FAD553"/>
<g clip-path="url(#clip0)">
<path d="M48.5697 37.5719H48.1208V33.5281C48.1208 32.8879 47.8022 32.321 47.3155 31.9766V31.426C47.3155 30.6273 46.6658 29.9776 45.8671 29.9776H45.5319L46.8145 28.0955C47.2444 27.4647 47.0809 26.6017 46.4501 26.1717L37.7471 20.2409C37.4415 20.0326 37.0732 19.9557 36.7097 20.0247C36.3463 20.0935 36.0315 20.2997 35.8233 20.6053L28.3115 31.6281H26.2212L26.7255 26.5229C26.7312 26.4653 26.7685 26.4155 26.8207 26.3958C27.4704 26.1509 28.0335 25.6934 28.4062 25.1077C28.4355 25.0615 28.4909 25.0352 28.5482 25.041L31.8268 25.3649C32.0619 25.3877 32.271 25.2165 32.2942 24.9815C32.3174 24.7465 32.1458 24.5373 31.9108 24.5141L28.6322 24.1902C28.2517 24.1529 27.8887 24.3283 27.6848 24.6487C27.4108 25.0794 26.9968 25.4157 26.5191 25.5958C26.1595 25.7314 25.9126 26.0544 25.8746 26.4388L25.3621 31.6281H24.817L25.6145 23.5536C25.6432 23.263 25.9026 23.0495 26.1936 23.0786L32.819 23.7331C33.054 23.7558 33.2632 23.5847 33.2864 23.3497C33.3096 23.1148 33.138 22.9055 32.9031 22.8823L26.2776 22.2278C25.518 22.1529 24.8387 22.7098 24.7637 23.4696L24.1208 29.9776H23.026C22.2273 29.9776 21.5775 30.6273 21.5775 31.426V31.8016C20.9242 32.1024 20.4692 32.7629 20.4692 33.5281V48.1C20.4692 49.1477 21.3215 50 22.3693 50H46.2208C47.2685 50 48.1208 49.1477 48.1208 48.1V44.0562H48.5697C49.0997 44.0562 49.5307 43.6252 49.5307 43.0953V38.5329C49.5308 38.003 49.0997 37.5719 48.5697 37.5719ZM45.8671 30.8326C46.1944 30.8325 46.4606 31.0988 46.4606 31.4261V31.6439C46.382 31.6339 46.3021 31.6282 46.2208 31.6282H44.4071L44.9492 30.8326H45.8671ZM36.5297 21.0867C36.6094 20.9698 36.7298 20.891 36.8688 20.8646C36.902 20.8583 36.9354 20.8552 36.9685 20.8552C37.0738 20.8552 37.1767 20.8867 37.2656 20.9473L45.9686 26.8781C46.2099 27.0426 46.2725 27.3727 46.108 27.614L43.3725 31.628H42.7161L44.0572 29.66C44.2747 29.3409 44.2926 28.9347 44.1038 28.6C43.8529 28.1552 43.7512 27.6316 43.8174 27.1254C43.8667 26.7488 43.701 26.3812 43.385 26.1659L38.8734 23.0914C38.5574 22.8761 38.1546 22.8563 37.8222 23.0399C37.3754 23.2866 36.8508 23.3834 36.3452 23.3126C35.9702 23.26 35.5898 23.4294 35.3755 23.7437L30.0026 31.6281H29.3461L36.5297 21.0867ZM36.718 28.346C34.8564 28.346 33.3283 29.7975 33.2038 31.6281H31.037L36.0819 24.2252C36.082 24.2252 36.082 24.2252 36.082 24.2252C36.1106 24.1831 36.1581 24.158 36.2069 24.158C36.2134 24.158 36.2199 24.1584 36.2264 24.1593C36.9142 24.2555 37.6276 24.1239 38.2353 23.7884C38.2831 23.7619 38.3446 23.7657 38.3919 23.7979L42.9036 26.8725C42.9508 26.9047 42.9767 26.9605 42.9697 27.0147C42.8796 27.7031 43.018 28.4152 43.3592 29.02C43.3866 29.0686 43.3833 29.1308 43.3508 29.1786L41.6816 31.628H40.2324C40.1078 29.7975 38.5797 28.346 36.718 28.346ZM39.3751 31.6281H34.0609C34.1834 30.2694 35.328 29.201 36.718 29.201C38.1081 29.2009 39.2527 30.2694 39.3751 31.6281ZM22.4325 31.426C22.4325 31.0987 22.6987 30.8324 23.026 30.8324H24.0364L23.9578 31.6281H22.4325V31.426ZM21.3242 33.5281C21.3242 32.9518 21.793 32.483 22.3693 32.483H46.2208C46.7971 32.483 47.2659 32.9518 47.2659 33.5281V34.7142H21.3242V33.5281ZM47.2659 48.1C47.2659 48.6762 46.7971 49.145 46.2208 49.145H22.3693C21.793 49.145 21.3242 48.6762 21.3242 48.1V46.9139H23.6294C23.8655 46.9139 24.0568 46.7225 24.0568 46.4864C24.0568 46.2503 23.8654 46.059 23.6294 46.059H21.3242V35.5692H47.2659V37.5719H43.2014H43.2014C41.9208 37.5719 40.8115 38.3184 40.285 39.3989C40.2832 39.4025 40.2812 39.4061 40.2794 39.4097C40.275 39.4189 40.2711 39.4284 40.2668 39.4377C40.2041 39.5709 40.1496 39.7088 40.1052 39.851C40.1051 39.8514 40.105 39.8518 40.1049 39.8522C40.0103 40.1562 39.9592 40.4793 39.9592 40.8141C39.9592 42.6018 41.4136 44.0562 43.2013 44.0562H43.2014H47.2658V46.059H26.3665C26.1304 46.059 25.9391 46.2503 25.9391 46.4864C25.9391 46.7225 26.1304 46.9139 26.3665 46.9139H47.2659V48.1ZM48.6759 43.0952C48.6759 43.1537 48.6283 43.2013 48.5697 43.2013H43.2015C42.2965 43.2013 41.5075 42.6951 41.1028 41.951C41.0844 41.9172 41.0668 41.8829 41.05 41.8481C41.0164 41.7786 40.9861 41.7072 40.9594 41.634C40.8655 41.3782 40.8143 41.102 40.8143 40.8141C40.8143 40.5261 40.8655 40.2499 40.9594 39.9941C40.9862 39.921 41.0165 39.8496 41.05 39.78C41.0668 39.7453 41.0844 39.7109 41.1028 39.6771C41.5075 38.933 42.2965 38.4268 43.2015 38.4268H48.5697C48.6282 38.4268 48.6759 38.4744 48.6759 38.5329V43.0952Z" fill="#232323"/>
<path d="M43.3015 39.0798C42.3451 39.0798 41.5671 39.8579 41.5671 40.8142C41.5671 41.7705 42.3451 42.5485 43.3015 42.5485C44.2579 42.5485 45.0359 41.7705 45.0359 40.8142C45.0359 39.8579 44.2579 39.0798 43.3015 39.0798ZM43.3015 41.6936C42.8166 41.6936 42.4221 41.2991 42.4221 40.8142C42.4221 40.3293 42.8166 39.9348 43.3015 39.9348C43.7864 39.9348 44.1809 40.3293 44.1809 40.8142C44.1809 41.2991 43.7864 41.6936 43.3015 41.6936Z" fill="#232323"/>
</g>
<defs>
<clipPath id="clip0">
<rect width="30" height="30" fill="white" transform="translate(20 20)"/>
</clipPath>
</defs>
</svg>
