<svg width="53" height="55" viewBox="0 0 53 55" fill="none" xmlns="http://www.w3.org/2000/svg">
<path d="M29.096 20.7678H22.8656V14.5374C22.8656 13.9642 22.4004 13.499 21.8272 13.499C21.254 13.499 20.7888 13.9642 20.7888 14.5374V20.7678H14.5584C13.9852 20.7678 13.52 21.233 13.52 21.8062C13.52 22.3794 13.9852 22.8446 14.5584 22.8446H20.7888V29.0751C20.7888 29.6483 21.254 30.1135 21.8272 30.1135C22.4004 30.1135 22.8656 29.6483 22.8656 29.0751V22.8446H29.096C29.6692 22.8446 30.1344 22.3794 30.1344 21.8062C30.1344 21.233 29.6692 20.7678 29.096 20.7678Z" fill="white"/>
<path d="M52.6895 53.242L37.2599 37.1956C41.1955 33.2486 43.6336 27.8074 43.6336 21.8064C43.6336 9.78175 33.8519 0 21.8272 0C9.8025 0 0.020752 9.78175 0.020752 21.8064C0.020752 33.8311 9.8025 43.6129 21.8272 43.6129C27.1054 43.6129 31.9495 41.7261 35.7252 38.5953L51.1922 54.6812C51.3957 54.8941 51.6678 55 51.9409 55C52.2005 55 52.459 54.9034 52.6605 54.7103C53.0737 54.3126 53.0862 53.6553 52.6895 53.242ZM2.09756 21.8064C2.09756 10.9271 10.9479 2.0768 21.8272 2.0768C32.7065 2.0768 41.5568 10.9271 41.5568 21.8064C41.5568 32.6858 32.7065 41.5361 21.8272 41.5361C10.9479 41.5361 2.09756 32.6858 2.09756 21.8064Z" fill="white"/>
</svg>
