<svg width="194" height="22" viewBox="0 0 194 22" fill="none" xmlns="http://www.w3.org/2000/svg">
<path d="M4.72656 17.2266H15.2266V21H0.515625V1.39453H14.9395V5.18164H4.72656V9.10547H12.6973V12.8789H4.72656V17.2266Z" fill="#8CE157"/>
<path d="M24.4551 21L17.1816 1.39453H21.666L26.6973 15.9551L31.7422 1.39453H36.2266L28.9395 21H24.4551Z" fill="#8CE157"/>
<path d="M43.5 17.2266H54V21H39.2891V1.39453H53.7129V5.18164H43.5V9.10547H51.4707V12.8789H43.5V17.2266Z" fill="#8CE157"/>
<path d="M57.9102 21V1.39453H66.5918C68.5332 1.39453 70.1374 2.01888 71.4043 3.26758C72.6803 4.50716 73.3184 6.0293 73.3184 7.83398C73.3184 8.61784 73.1953 9.35156 72.9492 10.0352C72.7031 10.7188 72.4115 11.2702 72.0742 11.6895C71.7461 12.1087 71.4089 12.4688 71.0625 12.7695C70.7161 13.0703 70.4199 13.2754 70.1738 13.3848L69.8184 13.5762L74.0156 21H69.5312L65.7578 14.1367H62.1211V21H57.9102ZM69.1211 7.83398C69.1211 7.06836 68.8659 6.4349 68.3555 5.93359C67.8542 5.43229 67.2207 5.18164 66.4551 5.18164H62.1211V10.3633H66.4551C67.2207 10.3633 67.8542 10.1217 68.3555 9.63867C68.8659 9.14648 69.1211 8.54492 69.1211 7.83398Z" fill="#8CE157"/>
<path d="M88.1523 10.3633H95.8496V17.6367C95.7767 17.7279 95.6582 17.8646 95.4941 18.0469C95.3392 18.2201 94.9883 18.5254 94.4414 18.9629C93.9036 19.3913 93.3294 19.7741 92.7188 20.1113C92.1172 20.4395 91.3242 20.7402 90.3398 21.0137C89.3646 21.2871 88.3574 21.4238 87.3184 21.4238C84.3288 21.4238 81.804 20.4258 79.7441 18.4297C77.6934 16.4245 76.668 14.0137 76.668 11.1973C76.668 8.38086 77.6934 5.97461 79.7441 3.97852C81.804 1.98242 84.3288 0.984375 87.3184 0.984375C88.3483 0.984375 89.3281 1.12109 90.2578 1.39453C91.1875 1.65885 91.9486 1.98242 92.541 2.36523C93.1426 2.74805 93.6712 3.13086 94.127 3.51367C94.5918 3.89648 94.9245 4.22005 95.125 4.48438L95.4395 4.89453L92.7734 7.56055C92.7188 7.48763 92.6413 7.38737 92.541 7.25977C92.4499 7.12305 92.2357 6.89518 91.8984 6.57617C91.5703 6.25716 91.2103 5.97917 90.8184 5.74219C90.4264 5.49609 89.9115 5.27279 89.2734 5.07227C88.6354 4.86263 87.9837 4.75781 87.3184 4.75781C85.4863 4.75781 83.9551 5.37305 82.7246 6.60352C81.4941 7.83398 80.8789 9.36523 80.8789 11.1973C80.8789 13.0293 81.4941 14.5605 82.7246 15.791C83.9551 17.0215 85.4863 17.6367 87.3184 17.6367C88.1934 17.6367 88.9909 17.5091 89.7109 17.2539C90.431 16.9896 90.9368 16.7253 91.2285 16.4609L91.6523 16.1055V13.4395H88.1523V10.3633Z" fill="#8CE157"/>
<path d="M100.457 21V1.39453H109.139C111.08 1.39453 112.684 2.01888 113.951 3.26758C115.227 4.50716 115.865 6.0293 115.865 7.83398C115.865 8.61784 115.742 9.35156 115.496 10.0352C115.25 10.7188 114.958 11.2702 114.621 11.6895C114.293 12.1087 113.956 12.4688 113.609 12.7695C113.263 13.0703 112.967 13.2754 112.721 13.3848L112.365 13.5762L116.562 21H112.078L108.305 14.1367H104.668V21H100.457ZM111.668 7.83398C111.668 7.06836 111.413 6.4349 110.902 5.93359C110.401 5.43229 109.768 5.18164 109.002 5.18164H104.668V10.3633H109.002C109.768 10.3633 110.401 10.1217 110.902 9.63867C111.413 9.14648 111.668 8.54492 111.668 7.83398Z" fill="#8CE157"/>
<path d="M124.547 17.2266H135.047V21H120.336V1.39453H134.76V5.18164H124.547V9.10547H132.518V12.8789H124.547V17.2266Z" fill="#8CE157"/>
<path d="M143.168 17.2266H153.668V21H138.957V1.39453H153.381V5.18164H143.168V9.10547H151.139V12.8789H143.168V17.2266Z" fill="#8CE157"/>
<path d="M170.881 1.39453H175.078V21H171.441L161.789 8.54492V21H157.578V1.39453H161.229L170.881 13.8633V1.39453Z" fill="#8CE157"/>
<path d="M188.654 15.2578C188.654 14.6016 188.322 14.0729 187.656 13.6719C187 13.2708 186.193 12.9382 185.236 12.6738C184.288 12.4004 183.34 12.0814 182.393 11.7168C181.454 11.3522 180.652 10.7507 179.986 9.91211C179.321 9.07357 178.988 8.01172 178.988 6.72656C178.988 5.14062 179.622 3.78711 180.889 2.66602C182.165 1.54492 183.819 0.984375 185.852 0.984375C186.654 0.984375 187.428 1.08008 188.176 1.27148C188.923 1.45378 189.534 1.67253 190.008 1.92773C190.491 2.17383 190.91 2.42904 191.266 2.69336C191.63 2.94857 191.89 3.17188 192.045 3.36328L192.291 3.63672L189.775 6.30273C189.666 6.17513 189.511 6.02018 189.311 5.83789C189.119 5.64648 188.709 5.39583 188.08 5.08594C187.451 4.77604 186.804 4.62109 186.139 4.62109C185.337 4.62109 184.689 4.82617 184.197 5.23633C183.714 5.64648 183.473 6.14323 183.473 6.72656C183.473 7.38281 183.801 7.91146 184.457 8.3125C185.122 8.70443 185.924 9.03711 186.863 9.31055C187.811 9.58398 188.759 9.90299 189.707 10.2676C190.664 10.6322 191.475 11.2337 192.141 12.0723C192.806 12.9108 193.139 13.9727 193.139 15.2578C193.139 17.0716 192.478 18.5527 191.156 19.7012C189.844 20.8496 188.03 21.4238 185.715 21.4238C184.803 21.4238 183.919 21.3099 183.062 21.082C182.215 20.8633 181.513 20.599 180.957 20.2891C180.41 19.9792 179.927 19.6647 179.508 19.3457C179.089 19.0267 178.788 18.7578 178.605 18.5391L178.291 18.1973L180.82 15.6816C180.948 15.8275 181.126 16.0189 181.354 16.2559C181.59 16.4837 182.11 16.7936 182.912 17.1855C183.714 17.5775 184.553 17.7734 185.428 17.7734C186.439 17.7734 187.228 17.5365 187.793 17.0625C188.367 16.5885 188.654 15.987 188.654 15.2578Z" fill="#8CE157"/>
</svg>
